<svg xmlns="http://www.w3.org/2000/svg" width="512" height="512" viewBox="0 0 100 100">
  <defs>
    <clipPath id="pin">
      <path d="M50 7C28 7 13 24 13 43c0 23 21 38 37 54 16-16 37-31 37-54C87 24 72 7 50 7z"/>
    </clipPath>
  </defs>

  <g clip-path="url(#pin)">
    <rect x="13" y="7" width="37" height="40" fill="#FFBE2E"/>
    <rect x="50" y="7" width="37" height="40" fill="#FF5269"/>
    <rect x="13" y="43" width="37" height="54" fill="#1E83F7"/>
    <rect x="50" y="43" width="37" height="54" fill="#13B8A6"/>
  </g>

  <circle cx="50" cy="37" r="26" fill="#FFFFFF"/>
  <path d="M50 17c-8 0-15 4-20 11l18 9 10-7z" fill="#FFBE2E"/>
  <path d="M52 17c9 1 16 7 20 15L59 48 48 37z" fill="#FF5269"/>
  <path d="M73 33c2 9-3 18-10 23l-17-6 13-5z" fill="#1E83F7"/>
  <path d="M61 57c-9 5-19 4-27-2l3-18 10 13z" fill="#13B8A6"/>
  <path d="M31 52c-7-7-8-18-4-26l17 1-7 12z" fill="#0AA398"/>

  <circle cx="50" cy="37" r="10.5" fill="#25284A"/>
  <ellipse cx="45.5" cy="32.5" rx="3.2" ry="2.2" transform="rotate(-42 45.5 32.5)" fill="#9A91E9" opacity=".82"/>
  <circle cx="55" cy="42" r="1.6" fill="#9A91E9" opacity=".65"/>
</svg>