<svg xmlns="http://www.w3.org/2000/svg" width="900" height="220" viewBox="0 0 900 220" role="img" aria-labelledby="title desc">
  <title id="title">Immich GeoTagger</title>
  <desc id="desc">Immich GeoTagger Lens Pin logo.</desc>
  <defs>
    <clipPath id="pin">
      <path d="M110 24C70 24 43 55 43 89c0 42 38 69 67 98 29-29 67-56 67-98 0-34-27-65-67-65z"/>
    </clipPath>
    <path id="blade" d="M87.55 47.09
      A38 38 0 0 1 125.45 43.48
      L119.21 57.49
      A22.62 22.62 0 0 0 96.70 59.86
      Z"/>
  </defs>

  <g clip-path="url(#pin)">
    <rect x="43" y="24" width="67" height="72" fill="#FFBE2E"/>
    <rect x="110" y="24" width="67" height="72" fill="#FF5269"/>
    <rect x="43" y="89" width="67" height="98" fill="#1E83F7"/>
    <rect x="110" y="89" width="67" height="98" fill="#13B8A6"/>
  </g>

  <circle cx="110" cy="78" r="47" fill="#FFFFFF"/>

  <use href="#blade" fill="#FFBE2E"/>
  <use href="#blade" fill="#FF5269" transform="rotate(72 110 78)"/>
  <use href="#blade" fill="#1E83F7" transform="rotate(144 110 78)"/>
  <use href="#blade" fill="#13B8A6" transform="rotate(216 110 78)"/>
  <use href="#blade" fill="#0AA398" transform="rotate(288 110 78)"/>

  <circle cx="110" cy="78" r="19" fill="#25284A"/>
  <ellipse cx="102" cy="70" rx="6" ry="4" transform="rotate(-42 102 70)" fill="#9A91E9" opacity=".82"/>
  <circle cx="119" cy="87" r="3" fill="#9A91E9" opacity=".65"/>

  <text x="220" y="102" font-family="Inter,Segoe UI,Arial,sans-serif" font-size="64" font-weight="700" fill="#2B2E46">Immich GeoTagger</text>
  <text x="224" y="151" font-family="Inter,Segoe UI,Arial,sans-serif" font-size="28" font-weight="500" fill="#6C7085">GPS for cameras without</text>
</svg>